<svg width="16" height="16" viewBox="0 0 16 16" fill="none" xmlns="http://www.w3.org/2000/svg">
<g clip-path="url(#clip0_1211_13116)">
<path fill-rule="evenodd" clip-rule="evenodd" d="M12.9828 10.2241C14.829 9.14133 14.829 6.43442 12.9828 5.35165L6.55424 1.58128C5.39087 0.898961 4.04422 1.18407 3.20726 2.03019L7.30686 4.49758L6.94485 5.11827L2.8268 2.63977C2.80774 2.62829 2.7886 2.61707 2.76939 2.60612C2.53663 3.0131 2.40039 3.49134 2.40039 4.01751L2.40039 8.95177L8.69386 12.7396L12.0083 10.7957C11.8675 10.3782 11.5854 10.0076 11.1824 9.76505L5.82259 6.5392C5.32109 6.23737 4.68166 6.40391 4.39178 6.90094C4.1019 7.39796 4.26525 8.04768 4.76676 8.34951L9.7554 11.352L9.39339 11.9727L4.40476 8.97016C3.57151 8.46871 3.28762 7.37878 3.78078 6.5332C4.27395 5.68763 5.35134 5.41702 6.18459 5.91852L11.8499 9.32829L11.8376 9.34928C12.199 9.64026 12.4675 10.0153 12.6319 10.43L12.9828 10.2241ZM7.98823 13.1535L2.40039 9.79037L2.40039 11.5582C2.40039 13.7238 4.70808 15.0773 6.55424 13.9945L7.98823 13.1535Z" fill="url(#paint0_linear_1211_13116)"/>
</g>
<defs>
<linearGradient id="paint0_linear_1211_13116" x1="8.38392" y1="1.2002" x2="8.38392" y2="14.3756" gradientUnits="userSpaceOnUse">
<stop stop-color="#6F4EF3"/>
<stop offset="1" stop-color="#0A63E9"/>
</linearGradient>
<clipPath id="clip0_1211_13116">
<rect width="12" height="13.2" fill="white" transform="translate(2.40039 1.2002)"/>
</clipPath>
</defs>
</svg>
