<svg width="264" height="40" viewBox="0 0 264 40" fill="none" xmlns="http://www.w3.org/2000/svg">
<g clip-path="url(#clip0_1211_13112)">
<path fill-rule="evenodd" clip-rule="evenodd" d="M62.4561 25.5597C67.0715 22.8528 67.0715 16.0856 62.4561 13.3786L46.3846 3.95271C43.4762 2.24691 40.1096 2.9597 38.0172 5.075L48.2662 11.2435L47.3612 12.7952L37.066 6.59893C37.0184 6.57024 36.9705 6.5422 36.9225 6.51481C36.3406 7.53227 36 8.72786 36 10.0433L36 22.3789L51.7337 31.8485L60.0199 26.9887C59.6679 25.9451 58.9626 25.0186 57.955 24.4121L44.5555 16.3475C43.3018 15.5929 41.7032 16.0093 40.9785 17.2519C40.2538 18.4944 40.6622 20.1187 41.9159 20.8733L54.3875 28.3795L53.4825 29.9312L41.0109 22.4249C38.9278 21.1713 38.2181 18.4465 39.451 16.3325C40.6839 14.2186 43.3774 13.5421 45.4605 14.7958L59.6238 23.3202L59.5931 23.3727C60.4965 24.1002 61.1677 25.0379 61.5788 26.0744L62.4561 25.5597ZM49.9696 32.8832L36 24.4754L36 28.8951C36 34.3091 41.7692 37.6927 46.3846 34.9857L49.9696 32.8832Z" fill="url(#paint0_linear_1211_13112)"/>
</g>
<path d="M89 8.87257H93.0015L98.3603 21.9523H98.5718L103.931 8.87257H107.932V26.9232H104.794V14.5222H104.627L99.6383 26.8704H97.2938L92.3052 14.4958H92.1377V26.9232H89V8.87257Z" fill="black"/>
<path d="M115.248 27.1965C114.39 27.1965 113.617 27.0437 112.929 26.7382C112.248 26.4267 111.707 25.9684 111.308 25.3632C110.914 24.758 110.717 24.0118 110.717 23.1245C110.717 22.3606 110.858 21.729 111.14 21.2295C111.422 20.7301 111.807 20.3305 112.295 20.0308C112.783 19.7312 113.332 19.505 113.943 19.3522C114.56 19.1935 115.198 19.079 115.856 19.0084C116.649 18.9262 117.292 18.8527 117.786 18.7881C118.279 18.7176 118.638 18.6118 118.861 18.4708C119.09 18.3239 119.205 18.0977 119.205 17.7921V17.7393C119.205 17.0753 119.008 16.5611 118.614 16.1968C118.221 15.8325 117.654 15.6504 116.913 15.6504C116.132 15.6504 115.512 15.8208 115.054 16.1616C114.601 16.5024 114.296 16.9049 114.137 17.3691L111.158 16.946C111.393 16.1234 111.781 15.4359 112.321 14.8836C112.862 14.3254 113.523 13.9082 114.304 13.632C115.086 13.35 115.95 13.209 116.896 13.209C117.548 13.209 118.197 13.2853 118.844 13.4381C119.49 13.5909 120.08 13.8436 120.615 14.1961C121.15 14.5428 121.579 15.0158 121.902 15.6151C122.231 16.2145 122.396 16.9636 122.396 17.8627V26.9232H119.328V25.0635H119.223C119.029 25.4396 118.755 25.7921 118.403 26.1212C118.056 26.4444 117.618 26.7058 117.09 26.9056C116.567 27.0995 115.953 27.1965 115.248 27.1965ZM116.076 24.852C116.716 24.852 117.272 24.7257 117.742 24.473C118.212 24.2145 118.573 23.8737 118.826 23.4506C119.084 23.0275 119.214 22.5663 119.214 22.0668V20.4715C119.114 20.5538 118.943 20.6302 118.703 20.7007C118.468 20.7712 118.203 20.8329 117.909 20.8858C117.616 20.9387 117.325 20.9857 117.037 21.0268C116.749 21.0679 116.499 21.1032 116.288 21.1326C115.812 21.1972 115.386 21.303 115.01 21.4499C114.633 21.5968 114.337 21.8024 114.119 22.0668C113.902 22.3254 113.793 22.6603 113.793 23.0716C113.793 23.6592 114.008 24.1028 114.437 24.4025C114.866 24.7022 115.412 24.852 116.076 24.852Z" fill="black"/>
<path d="M125.604 26.9232V13.3852H128.697V15.6416H128.838C129.085 14.8601 129.508 14.2578 130.108 13.8347C130.713 13.4058 131.403 13.1913 132.179 13.1913C132.355 13.1913 132.552 13.2001 132.769 13.2178C132.993 13.2295 133.178 13.2501 133.325 13.2795V16.2145C133.19 16.1675 132.975 16.1263 132.681 16.0911C132.393 16.0499 132.114 16.0294 131.844 16.0294C131.262 16.0294 130.739 16.1557 130.275 16.4084C129.817 16.6552 129.455 16.9989 129.191 17.4396C128.927 17.8803 128.794 18.3885 128.794 18.9644V26.9232H125.604Z" fill="black"/>
<path d="M138.353 22.675L138.344 18.8234H138.855L143.721 13.3852H147.449L141.464 20.0485H140.803L138.353 22.675ZM135.444 26.9232V8.87257H138.635V26.9232H135.444ZM143.941 26.9232L139.534 20.7624L141.685 18.5149L147.757 26.9232H143.941Z" fill="black"/>
<path d="M155.011 27.1877C153.654 27.1877 152.481 26.9056 151.494 26.3415C150.513 25.7716 149.758 24.9666 149.229 23.9266C148.7 22.8806 148.436 21.6497 148.436 20.2336C148.436 18.841 148.7 17.6188 149.229 16.567C149.764 15.5094 150.51 14.6867 151.468 14.0992C152.426 13.5057 153.551 13.209 154.844 13.209C155.678 13.209 156.465 13.3441 157.206 13.6144C157.952 13.8788 158.61 14.2901 159.18 14.8483C159.756 15.4065 160.208 16.1175 160.537 16.9813C160.866 17.8391 161.031 18.8616 161.031 20.0485V21.0268H149.934V18.8762H157.972C157.967 18.2651 157.834 17.7216 157.576 17.2457C157.317 16.7639 156.956 16.3849 156.492 16.1087C156.033 15.8325 155.499 15.6945 154.888 15.6945C154.235 15.6945 153.663 15.8531 153.169 16.1704C152.675 16.4818 152.29 16.8931 152.014 17.4043C151.744 17.9097 151.606 18.4649 151.6 19.0701V20.9475C151.6 21.7349 151.744 22.4106 152.032 22.9747C152.32 23.5329 152.722 23.9618 153.239 24.2615C153.757 24.5553 154.362 24.7022 155.055 24.7022C155.519 24.7022 155.939 24.6375 156.315 24.5083C156.692 24.3731 157.018 24.1763 157.294 23.9177C157.57 23.6592 157.779 23.339 157.92 22.957L160.899 23.292C160.711 24.0793 160.352 24.7668 159.823 25.3544C159.3 25.9361 158.631 26.3885 157.814 26.7117C156.997 27.029 156.063 27.1877 155.011 27.1877Z" fill="black"/>
<path d="M170.49 13.3852V15.8531H162.708V13.3852H170.49ZM164.629 10.1418H167.82V22.8513C167.82 23.2802 167.884 23.6093 168.014 23.8384C168.149 24.0617 168.325 24.2145 168.542 24.2967C168.76 24.379 169.001 24.4201 169.265 24.4201C169.465 24.4201 169.647 24.4054 169.812 24.3761C169.982 24.3467 170.111 24.3202 170.199 24.2967L170.737 26.791C170.567 26.8498 170.323 26.9144 170.006 26.9849C169.694 27.0555 169.312 27.0966 168.86 27.1083C168.061 27.1318 167.341 27.0114 166.7 26.747C166.06 26.4767 165.552 26.0595 165.176 25.4954C164.805 24.9313 164.623 24.2262 164.629 23.3801V10.1418Z" fill="black"/>
<path d="M194.907 14.9629H191.61C191.516 14.4223 191.343 13.9434 191.09 13.5263C190.838 13.1032 190.523 12.7448 190.147 12.451C189.771 12.1572 189.342 11.9368 188.86 11.7899C188.385 11.6372 187.87 11.5608 187.318 11.5608C186.337 11.5608 185.467 11.8076 184.709 12.3011C183.951 12.7888 183.358 13.5057 182.929 14.4517C182.5 15.3918 182.285 16.5406 182.285 17.8979C182.285 19.2787 182.5 20.4422 182.929 21.3882C183.364 22.3283 183.957 23.0393 184.709 23.5211C185.467 23.9971 186.334 24.235 187.309 24.235C187.85 24.235 188.355 24.1645 188.825 24.0235C189.301 23.8766 189.727 23.6621 190.103 23.3801C190.485 23.0981 190.805 22.7514 191.064 22.3401C191.328 21.9288 191.51 21.4587 191.61 20.9299L194.907 20.9475C194.783 21.8054 194.516 22.6104 194.105 23.3625C193.699 24.1146 193.167 24.7786 192.509 25.3544C191.851 25.9243 191.082 26.3709 190.2 26.6941C189.319 27.0114 188.34 27.17 187.265 27.17C185.679 27.17 184.263 26.8028 183.017 26.0683C181.771 25.3338 180.79 24.2732 180.073 22.8865C179.356 21.4998 178.998 19.8369 178.998 17.8979C178.998 15.953 179.359 14.2901 180.082 12.9093C180.805 11.5226 181.789 10.462 183.035 9.72751C184.28 8.99302 185.69 8.62578 187.265 8.62578C188.27 8.62578 189.204 8.7668 190.068 9.04884C190.932 9.33089 191.701 9.74513 192.377 10.2916C193.053 10.8322 193.608 11.4961 194.043 12.2835C194.484 13.065 194.772 13.9581 194.907 14.9629Z" fill="black"/>
<path d="M200.951 8.87257V26.9232H197.76V8.87257H200.951Z" fill="black"/>
<path d="M204.232 26.9232V13.3852H207.422V26.9232H204.232ZM205.836 11.4638C205.331 11.4638 204.896 11.2964 204.531 10.9614C204.167 10.6206 203.985 10.2123 203.985 9.73632C203.985 9.2545 204.167 8.84612 204.531 8.5112C204.896 8.1704 205.331 8 205.836 8C206.347 8 206.782 8.1704 207.14 8.5112C207.505 8.84612 207.687 9.2545 207.687 9.73632C207.687 10.2123 207.505 10.6206 207.14 10.9614C206.782 11.2964 206.347 11.4638 205.836 11.4638Z" fill="black"/>
<path d="M210.703 32V13.3852H213.841V15.6239H214.026C214.191 15.2949 214.423 14.9453 214.722 14.5751C215.022 14.199 215.427 13.8788 215.939 13.6144C216.45 13.3441 217.102 13.209 217.895 13.209C218.941 13.209 219.884 13.4763 220.725 14.011C221.571 14.5398 222.241 15.3243 222.734 16.3643C223.234 17.3985 223.483 18.6676 223.483 20.1719C223.483 21.6585 223.239 22.9218 222.752 23.9618C222.264 25.0018 221.6 25.7951 220.76 26.3415C219.92 26.888 218.968 27.1612 217.904 27.1612C217.129 27.1612 216.485 27.032 215.974 26.7734C215.463 26.5149 215.051 26.2035 214.74 25.8391C214.434 25.469 214.196 25.1194 214.026 24.7903H213.894V32H210.703ZM213.832 20.1542C213.832 21.0297 213.956 21.7965 214.202 22.4546C214.455 23.1127 214.816 23.6269 215.286 23.9971C215.762 24.3614 216.338 24.5435 217.014 24.5435C217.719 24.5435 218.31 24.3555 218.786 23.9794C219.261 23.5975 219.62 23.0775 219.861 22.4194C220.108 21.7554 220.231 21.0004 220.231 20.1542C220.231 19.314 220.111 18.5678 219.87 17.9155C219.629 17.2633 219.27 16.7521 218.794 16.3819C218.318 16.0118 217.725 15.8267 217.014 15.8267C216.332 15.8267 215.754 16.0059 215.278 16.3643C214.802 16.7227 214.44 17.2251 214.194 17.8715C213.953 18.5178 213.832 19.2787 213.832 20.1542Z" fill="black"/>
<defs>
<linearGradient id="paint0_linear_1211_13112" x1="50.9588" y1="3" x2="50.9588" y2="35.9385" gradientUnits="userSpaceOnUse">
<stop stop-color="#6F4EF3"/>
<stop offset="1" stop-color="#0A63E9"/>
</linearGradient>
<clipPath id="clip0_1211_13112">
<rect width="30" height="33" fill="white" transform="translate(36 3)"/>
</clipPath>
</defs>
</svg>
